<?xml version="1.0" encoding="UTF-8" standalone="no"?>
<!-- Generated by scripts/generate-corpus.mjs; do not edit by hand. -->
<svg width="512"
     height="512"
     viewBox="-2.172 -2.322 4.644 4.644"
     version="1.1"
     xmlns="http://www.w3.org/2000/svg">
    <path id="a"
          style="fill:#ff0000;fill-rule:nonzero"
          d="M 1 0 A 1 1 0 0 1 0 1 A 1 1 0 0 1 -1 0 A 1 1 0 0 1 0 -1 A 1 1 0 0 1 1 0 Z M 0.7 0 A 0.7 0.7 0 0 0 0 -0.7 A 0.7 0.7 0 0 0 -0.7 0 A 0.7 0.7 0 0 0 0 0.7 A 0.7 0.7 0 0 0 0.7 0 Z M 0.35 0 A 0.35 0.35 0 0 1 0 0.35 A 0.35 0.35 0 0 1 -0.35 0 A 0.35 0.35 0 0 1 0 -0.35 A 0.35 0.35 0 0 1 0.35 0 Z"/>
    <path id="b"
          style="fill:#ff0000;fill-rule:nonzero"
          d="M 1.4 0.1 A 0.9 0.9 0 0 1 0.5 1 A 0.9 0.9 0 0 1 -0.4 0.1 A 0.9 0.9 0 0 1 0.5 -0.8 A 0.9 0.9 0 0 1 1.4 0.1 Z M 0.95 0.1 A 0.45 0.45 0 0 0 0.5 -0.35 A 0.45 0.45 0 0 0 0.04999999999999999 0.1 A 0.45 0.45 0 0 0 0.5 0.55 A 0.45 0.45 0 0 0 0.95 0.1 Z"/>
</svg>
