<?xml version="1.0" encoding="UTF-8" standalone="no"?>
<!-- Generated by scripts/generate-corpus.mjs; do not edit by hand. -->
<svg width="512"
     height="512"
     viewBox="-2204 -2479 5508 5508"
     version="1.1"
     xmlns="http://www.w3.org/2000/svg">
    <path id="a"
          style="fill:#ff0000;fill-rule:nonzero"
          d="M 1000 0 A 1000 1000 0 0 1 0 1000 A 1000 1000 0 0 1 -1000 0 A 1000 1000 0 0 1 0 -1000 A 1000 1000 0 0 1 1000 0 Z"/>
    <path id="b"
          style="fill:#ff0000;fill-rule:nonzero"
          d="M 2100 550 A 1000 1000 0 0 1 1100 1550 A 1000 1000 0 0 1 100.00000000000009 550 A 1000 1000 0 0 1 1100 -449.99999999999994 A 1000 1000 0 0 1 2100 550 Z"/>
</svg>
