<?xml version="1.0" encoding="UTF-8" standalone="no"?>
<!-- Generated by scripts/generate-corpus.mjs; do not edit by hand. -->
<svg width="512"
     height="512"
     viewBox="-2.484 -2.484 4.968 4.968"
     version="1.1"
     xmlns="http://www.w3.org/2000/svg">
    <path id="a"
          style="fill:#ff0000;fill-rule:evenodd"
          d="M 0.4 0 A 0.9 0.9 0 0 1 -0.5 0.9 A 0.9 0.9 0 0 1 -1.4 0 A 0.9 0.9 0 0 1 -0.5 -0.9 A 0.9 0.9 0 0 1 0.4 0 Z M 1.4 0 A 0.9 0.9 0 0 1 0.5 0.9 A 0.9 0.9 0 0 1 -0.4 0 A 0.9 0.9 0 0 1 0.5 -0.9 A 0.9 0.9 0 0 1 1.4 0 Z"/>
    <path id="b"
          style="fill:#ff0000;fill-rule:nonzero"
          d="M -0.8 0.09999999999999998 L 0.8 0.09999999999999998 L 0.8 1.7000000000000002 L -0.8 1.7000000000000002 L -0.8 0.09999999999999998 Z"/>
</svg>
